<svg class="svg-icon" style="width: 1em; height: 1em;vertical-align: middle;fill: currentColor;overflow: hidden;" viewBox="0 0 1024 1024" version="1.1" xmlns="http://www.w3.org/2000/svg"><path d="M467.168 672.144a37.008 37.008 0 0 1-25.12-9.6l-161.808-150.72a37.12 37.12 0 1 1 50.24-54.672l136.688 127.072 252.672-235.68a37.12 37.12 0 1 1 50.24 54.672L491.536 661.744a32 32 0 0 1-24.368 10.4z"  /><path d="M512 982.16a484.4 484.4 0 0 1-191.856-39.824 36.32 36.32 0 1 1 28.96-66.608 409.248 409.248 0 1 0-173.024-143.344 36.448 36.448 0 0 1-60.096 41.264A480.112 480.112 0 1 1 512 982.16z"  /></svg>